<svg xmlns="http://www.w3.org/2000/svg" viewBox="0 0 120 120" fill="none">
  <!-- GLP-1: 39 aa large peptide — stylized helical backbone (alpha helix suggestion) -->
  <!-- Helix ribbon -->
  <path d="M 18 82 C 14 72 22 64 30 60 C 38 56 44 48 40 40 C 36 32 44 24 52 22 C 60 20 66 28 62 36 C 58 44 66 50 74 48 C 82 46 88 38 84 30 C 80 22 88 16 96 18 C 104 20 108 30 104 38"
        stroke="#1F2937" stroke-width="1.5" fill="none"/>
  <!-- Helix nodes spaced along the path -->
  <circle cx="18" cy="82" r="3.5" fill="#E5E7EB" stroke="#1F2937" stroke-width="1.5"/>
  <circle cx="26" cy="70" r="3.5" fill="#E5E7EB" stroke="#1F2937" stroke-width="1.5"/>
  <circle cx="36" cy="60" r="3.5" fill="#E5E7EB" stroke="#1F2937" stroke-width="1.5"/>
  <circle cx="44" cy="50" r="3.5" fill="#E5E7EB" stroke="#1F2937" stroke-width="1.5"/>
  <circle cx="40" cy="40" r="3.5" fill="#E5E7EB" stroke="#1F2937" stroke-width="1.5"/>
  <circle cx="48" cy="30" r="3.5" fill="#E5E7EB" stroke="#1F2937" stroke-width="1.5"/>
  <circle cx="58" cy="22" r="3.5" fill="#E5E7EB" stroke="#1F2937" stroke-width="1.5"/>
  <circle cx="68" cy="28" r="3.5" fill="#E5E7EB" stroke="#1F2937" stroke-width="1.5"/>
  <circle cx="64" cy="40" r="3.5" fill="#E5E7EB" stroke="#1F2937" stroke-width="1.5"/>
  <circle cx="72" cy="50" r="3.5" fill="#E5E7EB" stroke="#1F2937" stroke-width="1.5"/>
  <circle cx="80" cy="44" r="3.5" fill="#E5E7EB" stroke="#1F2937" stroke-width="1.5"/>
  <circle cx="86" cy="34" r="3.5" fill="#E5E7EB" stroke="#1F2937" stroke-width="1.5"/>
  <circle cx="82" cy="24" r="3.5" fill="#E5E7EB" stroke="#1F2937" stroke-width="1.5"/>
  <circle cx="92" cy="18" r="3.5" fill="#E5E7EB" stroke="#1F2937" stroke-width="1.5"/>
  <circle cx="102" cy="22" r="3.5" fill="#E5E7EB" stroke="#1F2937" stroke-width="1.5"/>
  <circle cx="106" cy="34" r="3.5" fill="#7090AB" stroke="#1F2937" stroke-width="1.5" opacity="0.8"/>
  <!-- GLP-1 receptor indication arrows -->
  <text x="60" y="100" text-anchor="middle" font-size="8" fill="#1F2937" font-family="monospace">GLP-1</text>
  <text x="60" y="110" text-anchor="middle" font-size="6" fill="#6B7280" font-family="monospace">39 aa · α-helix</text>
</svg>
