<svg xmlns="http://www.w3.org/2000/svg" viewBox="0 0 120 120" fill="none">
  <!-- MOTS-c: 16 aa mitochondrial peptide — backbone with mitochondria-suggestive oval -->
  <!-- Mitochondrial outer membrane (oval) -->
  <ellipse cx="60" cy="52" rx="38" ry="24" stroke="#7090AB" stroke-width="1" stroke-dasharray="3 2" opacity="0.5"/>
  <!-- Inner cristae suggestion -->
  <path d="M 38 48 Q 50 40 60 48 Q 70 56 82 48" stroke="#7090AB" stroke-width="1" opacity="0.4" fill="none"/>
  <!-- 16-node peptide backbone threading through -->
  <line x1="14" y1="68" x2="22" y2="55" stroke="#1F2937" stroke-width="1.5"/>
  <line x1="22" y1="55" x2="30" y2="42" stroke="#1F2937" stroke-width="1.5"/>
  <line x1="30" y1="42" x2="38" y2="35" stroke="#1F2937" stroke-width="1.5"/>
  <line x1="38" y1="35" x2="48" y2="38" stroke="#1F2937" stroke-width="1.5"/>
  <line x1="48" y1="38" x2="57" y2="34" stroke="#1F2937" stroke-width="1.5"/>
  <line x1="57" y1="34" x2="66" y2="38" stroke="#1F2937" stroke-width="1.5"/>
  <line x1="66" y1="38" x2="76" y2="35" stroke="#1F2937" stroke-width="1.5"/>
  <line x1="76" y1="35" x2="84" y2="42" stroke="#1F2937" stroke-width="1.5"/>
  <line x1="84" y1="42" x2="90" y2="52" stroke="#1F2937" stroke-width="1.5"/>
  <line x1="90" y1="52" x2="94" y2="62" stroke="#1F2937" stroke-width="1.5"/>
  <line x1="94" y1="62" x2="90" y2="72" stroke="#1F2937" stroke-width="1.5"/>
  <line x1="90" y1="72" x2="82" y2="78" stroke="#1F2937" stroke-width="1.5"/>
  <line x1="82" y1="78" x2="72" y2="80" stroke="#1F2937" stroke-width="1.5"/>
  <line x1="72" y1="80" x2="62" y2="78" stroke="#1F2937" stroke-width="1.5"/>
  <line x1="62" y1="78" x2="52" y2="75" stroke="#1F2937" stroke-width="1.5"/>
  <!-- Nodes -->
  <circle cx="14" cy="68" r="4" fill="#E5E7EB" stroke="#1F2937" stroke-width="1.5"/>
  <circle cx="22" cy="55" r="4" fill="#E5E7EB" stroke="#1F2937" stroke-width="1.5"/>
  <circle cx="30" cy="42" r="4" fill="#E5E7EB" stroke="#1F2937" stroke-width="1.5"/>
  <circle cx="38" cy="35" r="4" fill="#E5E7EB" stroke="#1F2937" stroke-width="1.5"/>
  <circle cx="48" cy="38" r="4" fill="#E5E7EB" stroke="#1F2937" stroke-width="1.5"/>
  <circle cx="57" cy="34" r="4" fill="#E5E7EB" stroke="#1F2937" stroke-width="1.5"/>
  <circle cx="66" cy="38" r="4" fill="#E5E7EB" stroke="#1F2937" stroke-width="1.5"/>
  <circle cx="76" cy="35" r="4" fill="#E5E7EB" stroke="#1F2937" stroke-width="1.5"/>
  <circle cx="84" cy="42" r="4" fill="#E5E7EB" stroke="#1F2937" stroke-width="1.5"/>
  <circle cx="90" cy="52" r="4" fill="#E5E7EB" stroke="#1F2937" stroke-width="1.5"/>
  <circle cx="94" cy="62" r="4" fill="#E5E7EB" stroke="#1F2937" stroke-width="1.5"/>
  <circle cx="90" cy="72" r="4" fill="#E5E7EB" stroke="#1F2937" stroke-width="1.5"/>
  <circle cx="82" cy="78" r="4" fill="#E5E7EB" stroke="#1F2937" stroke-width="1.5"/>
  <circle cx="72" cy="80" r="4" fill="#E5E7EB" stroke="#1F2937" stroke-width="1.5"/>
  <circle cx="62" cy="78" r="4" fill="#E5E7EB" stroke="#1F2937" stroke-width="1.5"/>
  <circle cx="52" cy="75" r="4" fill="#7090AB" stroke="#1F2937" stroke-width="1.5" opacity="0.8"/>
  <!-- Label -->
  <text x="60" y="100" text-anchor="middle" font-size="8" fill="#1F2937" font-family="monospace">MOTS-c</text>
  <text x="60" y="110" text-anchor="middle" font-size="6" fill="#6B7280" font-family="monospace">16 aa · mito</text>
</svg>
