<svg xmlns="http://www.w3.org/2000/svg" viewBox="0 0 120 120" fill="none">
  <!-- BPC-157: 15 amino acid peptide backbone -->
  <line x1="10" y1="75" x2="18" y2="50" stroke="#1F2937" stroke-width="1.5"/>
  <line x1="18" y1="50" x2="26" y2="70" stroke="#1F2937" stroke-width="1.5"/>
  <line x1="26" y1="70" x2="34" y2="45" stroke="#1F2937" stroke-width="1.5"/>
  <line x1="34" y1="45" x2="42" y2="65" stroke="#1F2937" stroke-width="1.5"/>
  <line x1="42" y1="65" x2="50" y2="40" stroke="#1F2937" stroke-width="1.5"/>
  <line x1="50" y1="40" x2="58" y2="60" stroke="#1F2937" stroke-width="1.5"/>
  <line x1="58" y1="60" x2="66" y2="38" stroke="#1F2937" stroke-width="1.5"/>
  <line x1="66" y1="38" x2="74" y2="58" stroke="#1F2937" stroke-width="1.5"/>
  <line x1="74" y1="58" x2="82" y2="35" stroke="#1F2937" stroke-width="1.5"/>
  <line x1="82" y1="35" x2="90" y2="55" stroke="#1F2937" stroke-width="1.5"/>
  <line x1="90" y1="55" x2="98" y2="32" stroke="#1F2937" stroke-width="1.5"/>
  <line x1="98" y1="32" x2="106" y2="52" stroke="#1F2937" stroke-width="1.5"/>
  <line x1="106" y1="52" x2="114" y2="30" stroke="#1F2937" stroke-width="1.5"/>
  <line x1="114" y1="30" x2="118" y2="50" stroke="#1F2937" stroke-width="1.5"/>
  <circle cx="10" cy="75" r="4" fill="#E5E7EB" stroke="#1F2937" stroke-width="1.5"/>
  <circle cx="18" cy="50" r="4" fill="#E5E7EB" stroke="#1F2937" stroke-width="1.5"/>
  <circle cx="26" cy="70" r="4" fill="#E5E7EB" stroke="#1F2937" stroke-width="1.5"/>
  <circle cx="34" cy="45" r="4" fill="#E5E7EB" stroke="#1F2937" stroke-width="1.5"/>
  <circle cx="42" cy="65" r="4" fill="#E5E7EB" stroke="#1F2937" stroke-width="1.5"/>
  <circle cx="50" cy="40" r="4" fill="#E5E7EB" stroke="#1F2937" stroke-width="1.5"/>
  <circle cx="58" cy="60" r="4" fill="#E5E7EB" stroke="#1F2937" stroke-width="1.5"/>
  <circle cx="66" cy="38" r="4" fill="#E5E7EB" stroke="#1F2937" stroke-width="1.5"/>
  <circle cx="74" cy="58" r="4" fill="#E5E7EB" stroke="#1F2937" stroke-width="1.5"/>
  <circle cx="82" cy="35" r="4" fill="#E5E7EB" stroke="#1F2937" stroke-width="1.5"/>
  <circle cx="90" cy="55" r="4" fill="#E5E7EB" stroke="#1F2937" stroke-width="1.5"/>
  <circle cx="98" cy="32" r="4" fill="#E5E7EB" stroke="#1F2937" stroke-width="1.5"/>
  <circle cx="106" cy="52" r="4" fill="#E5E7EB" stroke="#1F2937" stroke-width="1.5"/>
  <circle cx="114" cy="30" r="4" fill="#E5E7EB" stroke="#1F2937" stroke-width="1.5"/>
  <circle cx="118" cy="50" r="4" fill="#E5E7EB" stroke="#1F2937" stroke-width="1.5"/>
  <!-- Label -->
  <text x="60" y="100" text-anchor="middle" font-size="8" fill="#1F2937" font-family="monospace">BPC-157</text>
  <text x="60" y="110" text-anchor="middle" font-size="6" fill="#6B7280" font-family="monospace">15 aa</text>
</svg>
